<?xml version="1.0" standalone="no"?><svg xmlns="http://www.w3.org/2000/svg" viewBox="0 0 1440 320"><path fill="#19002D" fill-opacity="1" d="M0,128L24,128C48,128,96,128,144,144C192,160,240,192,288,186.7C336,181,384,139,432,112C480,85,528,75,576,80C624,85,672,107,720,138.7C768,171,816,213,864,218.7C912,224,960,192,1008,186.7C1056,181,1104,203,1152,186.7C1200,171,1248,117,1296,96C1344,75,1392,85,1416,90.7L1440,96L1440,320L1416,320C1392,320,1344,320,1296,320C1248,320,1200,320,1152,320C1104,320,1056,320,1008,320C960,320,912,320,864,320C816,320,768,320,720,320C672,320,624,320,576,320C528,320,480,320,432,320C384,320,336,320,288,320C240,320,192,320,144,320C96,320,48,320,24,320L0,320Z"></path></svg>